File Name

How To Train Your Dragon 2010 TC H264.mp4

File Size
Format : MPEG-4
Format profile : Base Media
Codec ID : isom
File size : 1.40 GiB
Duration : 1h 30mn
Overall bit rate : 2 231 Kbps

Video
ID : 1
Format : AVC
Format/Info : Advanced Video Codec
Format profile : High@L4.1
Format settings, CABAC : Yes
Format settings, ReFrames : 3 frames
Codec ID : avc1
Codec ID/Info : Advanced Video Coding
Duration : 1h 30mn
Bit rate mode : Variable
Bit rate : 2 099 Kbps
Maximum bit rate : 7 116 Kbps
Width : 1 280 pixels
Height : 544 pixels
Display aspect ratio : 2.35:1
Frame rate mode : Constant
Frame rate : 23.976 fps
Resolution : 24 bits
Colorimetry : 4:2:0
Scan type : Progressive
Bits/(Pixel*Frame) : 0.126
Stream size : 1.32 GiB (94%)

Audio 
ID : 2
Format : AAC
Format/Info : Advanced Audio Codec
Format version : Version 4
Format profile : LC
Format settings, SBR : No
Codec ID : 40
Duration : 1h 30mn
Bit rate mode : Variable
Bit rate : 128 Kbps
Maximum bit rate : 134 Kbps
Channel(s) : 2 channels
Channel positions : L R
Sampling rate : 48.0 KHz
Resolution : 16 bits
Stream size : 82.5 MiB (6%)

English SRT : ----

Language : English


 
http://www.imdb.com/title/tt0892769/

Release Date: 26 March 2010 (USA) 

Genre: Animation | Adventure | Comedy | Family | Fantasy 

Plot: A hapless young Viking who aspires to hunt dragons becomes the unlikely friend of a young dragon himself, and learns there may be more to the creatures than he assumed.

Cast: 
Jay Baruchel ... Hiccup (voice)
Gerard Butler ... Stoick (voice)
Craig Ferguson ... Gobber (voice)
America Ferrera ... Astrid (voice)
Jonah Hill ... Snotlout (voice)
Christopher Mintz-Plasse ... Fishlegs (voice)
T.J. Miller ... Tuffnut (voice)
Kristen Wiig ... Ruffnut (voice)
Robin Atkin Downes ... Ack
Philip McGrade ... Starkard (voice)
Kieron Elliott ... Hoark the Haggard (voice)
Ashley Jensen ... Phlegma the Fierce (voice)
Peter Aude ... Havblik den Vældige (voice: Danish Version)
Rasmus Ellersgaard ... Fiskeben (voice: Danish Version)
Robert Hansen ... Hikke (voice: Danish Version)
Julian Eliot Kellerman ... Stenknold Thorskal (voice: Danish Version)
Sasia Mølgaard ... Benknold (voice: Danish Version)
Niclas Mortensen ... Snotfjæs (voice: Danish Version)
Niels Olsen ... Gobert (voice: Danish Version)
ozlem Saglanmak ... Astrid (voice: Danish Version)
David Tennant ... Spitelout



Screenshots

 
http://postimg.com/image/19000/18339.jpg
 
http://postimg.com/image/19000/18340.jpg